# File produced by Open Asset Import Library (http://www.assimp.sf.net)
# (assimp v4.1.3154142419)

mtllib object_11.mtl

# 66 vertex positions
v  0 -1.818989403545856e-11 0.05000000074505806
v  0.04999999701976776 -1.818989403545856e-11 0.05000000074505806
v  0.04903925955295563 0.009754516184329987 0.05000000074505806
v  0.04999999701976776 -1.818989403545856e-11 -0.05000000074505806
v  0 -1.818989403545856e-11 -0.05000000074505806
v  0.04903925955295563 0.009754516184329987 -0.05000000074505806
v  0.04619397222995758 0.01913417316973209 0.05000000074505806
v  0.04619397222995758 0.01913417316973209 -0.05000000074505806
v  0.04157347977161407 0.02777851186692715 0.05000000074505806
v  0.04157347977161407 0.02777851186692715 -0.05000000074505806
v  0.0353553369641304 0.0353553369641304 0.05000000074505806
v  0.0353553369641304 0.0353553369641304 -0.05000000074505806
v  0.027778510004282 0.04157347977161407 0.05000000074505806
v  0.027778510004282 0.04157347977161407 -0.05000000074505806
v  0.01913417130708694 0.04619397222995758 0.05000000074505806
v  0.01913417130708694 0.04619397222995758 -0.05000000074505806
v  0.009754511527717113 0.04903927072882652 0.05000000074505806
v  0.009754511527717113 0.04903927072882652 -0.05000000074505806
v  -2.185569281110133e-09 0.04999999701976776 0.05000000074505806
v  -2.185569281110133e-09 0.04999999701976776 -0.05000000074505806
v  -0.009754516184329987 0.04903925955295563 0.05000000074505806
v  -0.009754516184329987 0.04903925955295563 -0.05000000074505806
v  -0.01913417503237724 0.04619397222995758 0.05000000074505806
v  -0.01913417503237724 0.04619397222995758 -0.05000000074505806
v  -0.02777851931750774 0.04157347604632378 0.05000000074505806
v  -0.02777851931750774 0.04157347604632378 -0.05000000074505806
v  -0.0353553369641304 0.0353553369641304 0.05000000074505806
v  -0.0353553369641304 0.0353553369641304 -0.05000000074505806
v  -0.04157347977161407 0.027778510004282 0.05000000074505806
v  -0.04157347977161407 0.027778510004282 -0.05000000074505806
v  -0.04619397968053818 0.01913416385650635 0.05000000074505806
v  -0.04619397968053818 0.01913416385650635 -0.05000000074505806
v  -0.04903927072882652 0.009754515253007412 0.05000000074505806
v  -0.04903927072882652 0.009754515253007412 -0.05000000074505806
v  -0.04999999701976776 -4.389328456255726e-09 0.05000000074505806
v  -0.04999999701976776 -4.389328456255726e-09 -0.05000000074505806
v  -0.04903925955295563 -0.009754524566233158 0.05000000074505806
v  -0.04903925955295563 -0.009754524566233158 -0.05000000074505806
v  -0.04619397222995758 -0.01913417130708694 0.05000000074505806
v  -0.04619397222995758 -0.01913417130708694 -0.05000000074505806
v  -0.04157347604632378 -0.0277785137295723 0.05000000074505806
v  -0.04157347604632378 -0.0277785137295723 -0.05000000074505806
v  -0.0353553295135498 -0.035355344414711 0.05000000074505806
v  -0.0353553295135498 -0.035355344414711 -0.05000000074505806
v  -0.02777850069105625 -0.04157349094748497 0.05000000074505806
v  -0.02777850069105625 -0.04157349094748497 -0.05000000074505806
v  -0.01913415640592575 -0.04619397968053818 0.05000000074505806
v  -0.01913415640592575 -0.04619397968053818 -0.05000000074505806
v  -0.00975451897829771 -0.04903925955295563 0.05000000074505806
v  -0.00975451897829771 -0.04903925955295563 -0.05000000074505806
v  5.962441096407645e-10 -0.04999999701976776 0.05000000074505806
v  5.962441096407645e-10 -0.04999999701976776 -0.05000000074505806
v  0.00975452084094286 -0.04903925955295563 0.05000000074505806
v  0.00975452084094286 -0.04903925955295563 -0.05000000074505806
v  0.01913417875766754 -0.04619397222995758 0.05000000074505806
v  0.01913417875766754 -0.04619397222995758 -0.05000000074505806
v  0.02777852118015289 -0.04157347232103348 0.05000000074505806
v  0.02777852118015289 -0.04157347232103348 -0.05000000074505806
v  0.0353553481400013 -0.03535532578825951 0.05000000074505806
v  0.0353553481400013 -0.03535532578825951 -0.05000000074505806
v  0.04157347977161407 -0.0277785137295723 0.05000000074505806
v  0.04157347977161407 -0.0277785137295723 -0.05000000074505806
v  0.04619397595524788 -0.01913417130708694 0.05000000074505806
v  0.04619397595524788 -0.01913417130708694 -0.05000000074505806
v  0.04903927072882652 -0.009754511527717113 0.05000000074505806
v  0.04903927072882652 -0.009754511527717113 -0.05000000074505806

# 0 UV coordinates

# 74 vertex normals
vn 0 0 1
vn 0 0 -1
vn 0.9951847195625305 -0.03267170488834381 0
vn 0.9951847195625305 0.03267279267311096 0
vn 0.9824366569519043 0.1621064096689224 0
vn 0.9696885943412781 0.2261955291032791 0
vn 0.9319340586662292 0.3506552875041962 0
vn 0.9069276452064514 0.4110259115695953 0
vn 0.8456175923347473 0.5257288217544556 0
vn 0.809313952922821 0.580061137676239 0
vn 0.8456175923347473 0.5257287621498108 0
vn 0.7268045544624329 0.68059903383255 0
vn 0.6805989742279053 0.7268047332763672 0
vn 0.5800610184669495 0.8093140125274658 0
vn 0.5257287621498108 0.8456177115440369 0
vn 0.5800610780715942 0.8093140721321106 0
vn 0.4110262095928192 0.9069275856018066 0
vn 0.3506558835506439 0.9319338202476501 0
vn 0.4110261499881744 0.9069275856018066 0
vn 0.2261957675218582 0.9696882367134094 0
vn 0.1621059626340866 0.98243647813797 0
vn 0.03267168626189232 0.9951847195625305 0
vn -0.03267281129956245 0.9951847195625305 0
vn -0.1621063947677612 0.9824365973472595 0
vn -0.2261954993009567 0.9696884751319885 0
vn -0.3506552278995514 0.9319340586662292 0
vn -0.4110258817672729 0.9069276452064514 0
vn -0.5257288813591003 0.8456175923347473 0
vn -0.5800612568855286 0.809313952922821 0
vn -0.6805992126464844 0.7268045544624329 0
vn -0.7268047332763672 0.6805989146232605 0
vn -0.8093140125274658 0.580061137676239 0
vn -0.8456175923347473 0.5257290005683899 0
vn -0.809313952922821 0.580061137676239 0
vn -0.9069275259971619 0.4110262393951416 0
vn -0.9319338202476501 0.3506557047367096 0
vn -0.969688355922699 0.2261955142021179 0
vn -0.9824365973472595 0.1621058136224747 0
vn -0.969688355922699 0.2261954993009567 0
vn -0.9951848387718201 0.03267166391015053 0
vn -0.9951847195625305 -0.03267278894782066 0
vn -0.9824365973472595 -0.1621064692735672 0
vn -0.9696884155273438 -0.2261956930160522 0
vn -0.9319339394569397 -0.3506555259227753 0
vn -0.9069275856018066 -0.4110260903835297 0
vn -0.9319339394569397 -0.3506554663181305 0
vn -0.8456175923347473 -0.5257289409637451 0
vn -0.8093140125274658 -0.5800611972808838 0
vn -0.7268047332763672 -0.68059903383255 0
vn -0.6805992126464844 -0.7268046736717224 0
vn -0.5800610184669495 -0.8093140721321106 0
vn -0.5257285237312317 -0.8456178307533264 0
vn -0.4110254347324371 -0.9069278836250305 0
vn -0.3506549596786499 -0.931934118270874 0
vn -0.2261953800916672 -0.9696884751319885 0
vn -0.1621063202619553 -0.9824365973472595 0
vn -0.03267241641879082 -0.9951847195625305 0
vn 0.03267241641879082 -0.9951847195625305 0
vn 0.1621063649654388 -0.9824366569519043 0
vn 0.2261954993009567 -0.9696884751319885 0
vn 0.1621063649654388 -0.9824365973472595 0
vn 0.3506554067134857 -0.9319339394569397 0
vn 0.4110261499881744 -0.9069275259971619 0
vn 0.5257291793823242 -0.8456174731254578 0
vn 0.5800614356994629 -0.8093138337135315 0
vn 0.6805992126464844 -0.7268045544624329 0
vn 0.7268047332763672 -0.68059903383255 0
vn 0.6805992126464844 -0.7268046736717224 0
vn 0.809313952922821 -0.5800611972808838 0
vn 0.8456175923347473 -0.5257289409637451 0
vn 0.9069275856018066 -0.4110262095928192 0
vn 0.9319338798522949 -0.3506557047367096 0
vn 0.969688355922699 -0.2261955738067627 0
vn 0.98243647813797 -0.1621058881282806 0

# Mesh '' with 128 faces
usemtl $Material_0
f  1//1 2//1 3//1
f  4//2 5//2 6//2
f  2//3 4//4 3//5
f  4//4 6//6 3//5
f  1//1 3//1 7//1
f  6//2 5//2 8//2
f  3//5 6//6 7//7
f  6//6 8//8 7//7
f  1//1 7//1 9//1
f  8//2 5//2 10//2
f  7//7 8//8 9//9
f  8//8 10//10 9//9
f  1//1 9//1 11//1
f  10//2 5//2 12//2
f  9//11 10//10 11//12
f  10//10 12//13 11//12
f  1//1 11//1 13//1
f  12//2 5//2 14//2
f  11//12 12//13 13//14
f  12//13 14//15 13//14
f  1//1 13//1 15//1
f  14//2 5//2 16//2
f  13//16 14//15 15//17
f  14//15 16//18 15//17
f  1//1 15//1 17//1
f  16//2 5//2 18//2
f  15//19 16//18 17//20
f  16//18 18//21 17//20
f  1//1 17//1 19//1
f  18//2 5//2 20//2
f  17//20 18//21 19//22
f  18//21 20//23 19//22
f  1//1 19//1 21//1
f  20//2 5//2 22//2
f  19//22 20//23 21//24
f  20//23 22//25 21//24
f  1//1 21//1 23//1
f  22//2 5//2 24//2
f  21//24 22//25 23//26
f  22//25 24//27 23//26
f  1//1 23//1 25//1
f  24//2 5//2 26//2
f  23//26 24//27 25//28
f  24//27 26//29 25//28
f  1//1 25//1 27//1
f  26//2 5//2 28//2
f  25//28 26//29 27//30
f  26//29 28//31 27//30
f  1//1 27//1 29//1
f  28//2 5//2 30//2
f  27//30 28//31 29//32
f  28//31 30//33 29//32
f  1//1 29//1 31//1
f  30//2 5//2 32//2
f  29//34 30//33 31//35
f  30//33 32//36 31//35
f  1//1 31//1 33//1
f  32//2 5//2 34//2
f  31//35 32//36 33//37
f  32//36 34//38 33//37
f  1//1 33//1 35//1
f  34//2 5//2 36//2
f  33//39 34//38 35//40
f  34//38 36//41 35//40
f  1//1 35//1 37//1
f  36//2 5//2 38//2
f  35//40 36//41 37//42
f  36//41 38//43 37//42
f  1//1 37//1 39//1
f  38//2 5//2 40//2
f  37//42 38//43 39//44
f  38//43 40//45 39//44
f  1//1 39//1 41//1
f  40//2 5//2 42//2
f  39//46 40//45 41//47
f  40//45 42//48 41//47
f  1//1 41//1 43//1
f  42//2 5//2 44//2
f  41//47 42//48 43//49
f  42//48 44//50 43//49
f  1//1 43//1 45//1
f  44//2 5//2 46//2
f  43//49 44//50 45//51
f  44//50 46//52 45//51
f  1//1 45//1 47//1
f  46//2 5//2 48//2
f  45//51 46//52 47//53
f  46//52 48//54 47//53
f  1//1 47//1 49//1
f  48//2 5//2 50//2
f  47//53 48//54 49//55
f  48//54 50//56 49//55
f  1//1 49//1 51//1
f  50//2 5//2 52//2
f  49//55 50//56 51//57
f  50//56 52//58 51//57
f  1//1 51//1 53//1
f  52//2 5//2 54//2
f  51//57 52//58 53//59
f  52//58 54//60 53//59
f  1//1 53//1 55//1
f  54//2 5//2 56//2
f  53//61 54//60 55//62
f  54//60 56//63 55//62
f  1//1 55//1 57//1
f  56//2 5//2 58//2
f  55//62 56//63 57//64
f  56//63 58//65 57//64
f  1//1 57//1 59//1
f  58//2 5//2 60//2
f  57//64 58//65 59//66
f  58//65 60//67 59//66
f  1//1 59//1 61//1
f  60//2 5//2 62//2
f  59//68 60//67 61//69
f  60//67 62//70 61//69
f  1//1 61//1 63//1
f  62//2 5//2 64//2
f  61//69 62//70 63//71
f  62//70 64//72 63//71
f  1//1 63//1 65//1
f  64//2 5//2 66//2
f  63//71 64//72 65//73
f  64//72 66//74 65//73
f  1//1 65//1 2//1
f  66//2 5//2 4//2
f  65//73 66//74 2//3
f  66//74 4//4 2//3

