# File produced by Open Asset Import Library (http://www.assimp.sf.net)
# (assimp v4.1.3154142419)

mtllib object_10.mtl

# 66 vertex positions
v  0 0 0.02499999850988388
v  0.02499999850988388 0 0.02499999850988388
v  0.02451962977647781 0.004877257626503706 0.02499999850988388
v  0.02499999850988388 0 -0.02499999850988388
v  0 0 -0.02499999850988388
v  0.02451962977647781 0.004877257626503706 -0.02499999850988388
v  0.02309698611497879 0.009567086584866047 0.02499999850988388
v  0.02309698611497879 0.009567086584866047 -0.02499999850988388
v  0.02078673802316189 0.013889255002141 0.02499999850988388
v  0.02078673802316189 0.013889255002141 -0.02499999850988388
v  0.0176776684820652 0.0176776684820652 0.02499999850988388
v  0.0176776684820652 0.0176776684820652 -0.02499999850988388
v  0.01388925313949585 0.02078673988580704 0.02499999850988388
v  0.01388925313949585 0.02078673988580704 -0.02499999850988388
v  0.009567084722220898 0.02309698611497879 0.02499999850988388
v  0.009567084722220898 0.02309698611497879 -0.02499999850988388
v  0.004877255298197269 0.02451963350176811 0.02499999850988388
v  0.004877255298197269 0.02451963350176811 -0.02499999850988388
v  -1.092784640555067e-09 0.02499999850988388 0.02499999850988388
v  -1.092784640555067e-09 0.02499999850988388 -0.02499999850988388
v  -0.004877257626503706 0.02451962977647781 0.02499999850988388
v  -0.004877257626503706 0.02451962977647781 -0.02499999850988388
v  -0.009567087516188622 0.02309698611497879 0.02499999850988388
v  -0.009567087516188622 0.02309698611497879 -0.02499999850988388
v  -0.0138892587274313 0.02078673616051674 0.02499999850988388
v  -0.0138892587274313 0.02078673616051674 -0.02499999850988388
v  -0.0176776684820652 0.0176776684820652 0.02499999850988388
v  -0.0176776684820652 0.0176776684820652 -0.02499999850988388
v  -0.02078673988580704 0.01388925313949585 0.02499999850988388
v  -0.02078673988580704 0.01388925313949585 -0.02499999850988388
v  -0.02309698984026909 0.009567081928253174 0.02499999850988388
v  -0.02309698984026909 0.009567081928253174 -0.02499999850988388
v  -0.02451963350176811 0.004877257626503706 0.02499999850988388
v  -0.02451963350176811 0.004877257626503706 -0.02499999850988388
v  -0.02499999850988388 -2.185569281110133e-09 0.02499999850988388
v  -0.02499999850988388 -2.185569281110133e-09 -0.02499999850988388
v  -0.02451962977647781 -0.004877262283116579 0.02499999850988388
v  -0.02451962977647781 -0.004877262283116579 -0.02499999850988388
v  -0.02309698611497879 -0.009567084722220898 0.02499999850988388
v  -0.02309698611497879 -0.009567084722220898 -0.02499999850988388
v  -0.02078673616051674 -0.01388925686478615 0.02499999850988388
v  -0.02078673616051674 -0.01388925686478615 -0.02499999850988388
v  -0.0176776647567749 -0.0176776722073555 0.02499999850988388
v  -0.0176776647567749 -0.0176776722073555 -0.02499999850988388
v  -0.01388924941420555 -0.02078674547374249 0.02499999850988388
v  -0.01388924941420555 -0.02078674547374249 -0.02499999850988388
v  -0.009567077271640301 -0.02309698984026909 0.02499999850988388
v  -0.009567077271640301 -0.02309698984026909 -0.02499999850988388
v  -0.004877259023487568 -0.02451962977647781 0.02499999850988388
v  -0.004877259023487568 -0.02451962977647781 -0.02499999850988388
v  2.981220270648066e-10 -0.02499999850988388 0.02499999850988388
v  2.981220270648066e-10 -0.02499999850988388 -0.02499999850988388
v  0.004877259954810143 -0.02451962977647781 0.02499999850988388
v  0.004877259954810143 -0.02451962977647781 -0.02499999850988388
v  0.009567089378833771 -0.02309698425233364 0.02499999850988388
v  0.009567089378833771 -0.02309698425233364 -0.02499999850988388
v  0.01388925965875387 -0.02078673616051674 0.02499999850988388
v  0.01388925965875387 -0.02078673616051674 -0.02499999850988388
v  0.01767767407000065 -0.0176776610314846 0.02499999850988388
v  0.01767767407000065 -0.0176776610314846 -0.02499999850988388
v  0.02078673802316189 -0.01388925686478615 0.02499999850988388
v  0.02078673802316189 -0.01388925686478615 -0.02499999850988388
v  0.02309698797762394 -0.009567084722220898 0.02499999850988388
v  0.02309698797762394 -0.009567084722220898 -0.02499999850988388
v  0.02451963350176811 -0.004877255298197269 0.02499999850988388
v  0.02451963350176811 -0.004877255298197269 -0.02499999850988388

# 0 UV coordinates

# 75 vertex normals
vn 0 0 1
vn 0 0 -1
vn 0.9951847195625305 -0.0326719619333744 0
vn 0.9951847195625305 0.03267266973853111 0
vn 0.9824366569519043 0.1621063947677612 0
vn 0.9696884751319885 0.2261954993009567 0
vn 0.9319339394569397 0.3506553471088409 0
vn 0.9069275856018066 0.4110261201858521 0
vn 0.9319339394569397 0.3506553173065186 0
vn 0.8456177115440369 0.5257290005683899 0
vn 0.8093140721321106 0.5800610184669495 0
vn 0.7268047332763672 0.6805989146232605 0
vn 0.6805989742279053 0.7268047332763672 0
vn 0.7268047332763672 0.6805989742279053 0
vn 0.5800609588623047 0.8093140721321106 0
vn 0.5257287621498108 0.8456177115440369 0
vn 0.4110261499881744 0.9069275856018066 0
vn 0.3506557047367096 0.9319338798522949 0
vn 0.2261957079172134 0.9696884155273438 0
vn 0.1621061414480209 0.9824366569519043 0
vn 0.03267194330692291 0.9951848387718201 0
vn -0.0326726883649826 0.9951847195625305 0
vn -0.1621063947677612 0.9824366569519043 0
vn -0.2261954545974731 0.9696885943412781 0
vn -0.3506553471088409 0.9319340586662292 0
vn -0.4110261499881744 0.9069275856018066 0
vn -0.5257291197776794 0.8456175923347473 0
vn -0.5800611972808838 0.8093140125274658 0
vn -0.5257290601730347 0.8456175923347473 0
vn -0.68059903383255 0.7268046736717224 0
vn -0.7268047332763672 0.6805989146232605 0
vn -0.8093140721321106 0.5800610780715942 0
vn -0.8456175923347473 0.5257290005683899 0
vn -0.8093140721321106 0.580061137676239 0
vn -0.9069275856018066 0.4110262393951416 0
vn -0.9319338798522949 0.3506555557250977 0
vn -0.9696884155273438 0.2261954098939896 0
vn -0.9824366569519043 0.1621059626340866 0
vn -0.9951847195625305 0.03267190977931023 0
vn -0.9951847195625305 -0.03267266973853111 0
vn -0.9824365973472595 -0.1621064990758896 0
vn -0.9696884155273438 -0.2261957377195358 0
vn -0.9824366569519043 -0.1621064841747284 0
vn -0.9319338798522949 -0.35065558552742 0
vn -0.9069275856018066 -0.4110262095928192 0
vn -0.8456175923347473 -0.5257289409637451 0
vn -0.8093140721321106 -0.5800610184669495 0
vn -0.726804792881012 -0.6805989146232605 0
vn -0.6805991530418396 -0.7268045544624329 0
vn -0.5800608992576599 -0.8093140721321106 0
vn -0.5257284641265869 -0.845617949962616 0
vn -0.5800609588623047 -0.8093140721321106 0
vn -0.4110254943370819 -0.9069278836250305 0
vn -0.3506549894809723 -0.9319341778755188 0
vn -0.4110254943370819 -0.9069280028343201 0
vn -0.2261954545974731 -0.9696885943412781 0
vn -0.1621063500642776 -0.9824366569519043 0
vn -0.03267242014408112 -0.9951847195625305 0
vn 0.03267242014408112 -0.9951847195625305 0
vn 0.1621064841747284 -0.9824366569519043 0
vn 0.2261957079172134 -0.9696884155273438 0
vn 0.1621064990758896 -0.9824366569519043 0
vn 0.3506555557250977 -0.9319339394569397 0
vn 0.4110261499881744 -0.9069275856018066 0
vn 0.5257290601730347 -0.8456175327301025 0
vn 0.5800613760948181 -0.8093137741088867 0
vn 0.5257290005683899 -0.8456175327301025 0
vn 0.6805992126464844 -0.7268044948577881 0
vn 0.7268047332763672 -0.6805989742279053 0
vn 0.809313952922821 -0.5800611972808838 0
vn 0.8456175923347473 -0.5257290005683899 0
vn 0.9069275856018066 -0.4110262095928192 0
vn 0.9319338798522949 -0.3506555557250977 0
vn 0.9696884155273438 -0.2261954993009567 0
vn 0.9824365973472595 -0.1621060371398926 0

# Mesh '' with 128 faces
usemtl $Material_0
f  1//1 2//1 3//1
f  4//2 5//2 6//2
f  2//3 4//4 3//5
f  4//4 6//6 3//5
f  1//1 3//1 7//1
f  6//2 5//2 8//2
f  3//5 6//6 7//7
f  6//6 8//8 7//7
f  1//1 7//1 9//1
f  8//2 5//2 10//2
f  7//9 8//8 9//10
f  8//8 10//11 9//10
f  1//1 9//1 11//1
f  10//2 5//2 12//2
f  9//10 10//11 11//12
f  10//11 12//13 11//12
f  1//1 11//1 13//1
f  12//2 5//2 14//2
f  11//14 12//13 13//15
f  12//13 14//16 13//15
f  1//1 13//1 15//1
f  14//2 5//2 16//2
f  13//15 14//16 15//17
f  14//16 16//18 15//17
f  1//1 15//1 17//1
f  16//2 5//2 18//2
f  15//17 16//18 17//19
f  16//18 18//20 17//19
f  1//1 17//1 19//1
f  18//2 5//2 20//2
f  17//19 18//20 19//21
f  18//20 20//22 19//21
f  1//1 19//1 21//1
f  20//2 5//2 22//2
f  19//21 20//22 21//23
f  20//22 22//24 21//23
f  1//1 21//1 23//1
f  22//2 5//2 24//2
f  21//23 22//24 23//25
f  22//24 24//26 23//25
f  1//1 23//1 25//1
f  24//2 5//2 26//2
f  23//25 24//26 25//27
f  24//26 26//28 25//27
f  1//1 25//1 27//1
f  26//2 5//2 28//2
f  25//29 26//28 27//30
f  26//28 28//31 27//30
f  1//1 27//1 29//1
f  28//2 5//2 30//2
f  27//30 28//31 29//32
f  28//31 30//33 29//32
f  1//1 29//1 31//1
f  30//2 5//2 32//2
f  29//34 30//33 31//35
f  30//33 32//36 31//35
f  1//1 31//1 33//1
f  32//2 5//2 34//2
f  31//35 32//36 33//37
f  32//36 34//38 33//37
f  1//1 33//1 35//1
f  34//2 5//2 36//2
f  33//37 34//38 35//39
f  34//38 36//40 35//39
f  1//1 35//1 37//1
f  36//2 5//2 38//2
f  35//39 36//40 37//41
f  36//40 38//42 37//41
f  1//1 37//1 39//1
f  38//2 5//2 40//2
f  37//43 38//42 39//44
f  38//42 40//45 39//44
f  1//1 39//1 41//1
f  40//2 5//2 42//2
f  39//44 40//45 41//46
f  40//45 42//47 41//46
f  1//1 41//1 43//1
f  42//2 5//2 44//2
f  41//46 42//47 43//48
f  42//47 44//49 43//48
f  1//1 43//1 45//1
f  44//2 5//2 46//2
f  43//48 44//49 45//50
f  44//49 46//51 45//50
f  1//1 45//1 47//1
f  46//2 5//2 48//2
f  45//52 46//51 47//53
f  46//51 48//54 47//53
f  1//1 47//1 49//1
f  48//2 5//2 50//2
f  47//55 48//54 49//56
f  48//54 50//57 49//56
f  1//1 49//1 51//1
f  50//2 5//2 52//2
f  49//56 50//57 51//58
f  50//57 52//59 51//58
f  1//1 51//1 53//1
f  52//2 5//2 54//2
f  51//58 52//59 53//60
f  52//59 54//61 53//60
f  1//1 53//1 55//1
f  54//2 5//2 56//2
f  53//62 54//61 55//63
f  54//61 56//64 55//63
f  1//1 55//1 57//1
f  56//2 5//2 58//2
f  55//63 56//64 57//65
f  56//64 58//66 57//65
f  1//1 57//1 59//1
f  58//2 5//2 60//2
f  57//67 58//66 59//68
f  58//66 60//69 59//68
f  1//1 59//1 61//1
f  60//2 5//2 62//2
f  59//68 60//69 61//70
f  60//69 62//71 61//70
f  1//1 61//1 63//1
f  62//2 5//2 64//2
f  61//70 62//71 63//72
f  62//71 64//73 63//72
f  1//1 63//1 65//1
f  64//2 5//2 66//2
f  63//72 64//73 65//74
f  64//73 66//75 65//74
f  1//1 65//1 2//1
f  66//2 5//2 4//2
f  65//74 66//75 2//3
f  66//75 4//4 2//3

