# File produced by Open Asset Import Library (http://www.assimp.sf.net)
# (assimp v4.1.3154142419)

mtllib object_14.mtl

# 66 vertex positions
v  0 0 0.03500000014901161
v  0.01999999955296516 0 0.03500000014901161
v  0.01961570419371128 0.003901806427165866 0.03500000014901161
v  0.01999999955296516 0 -0.03500000014901161
v  0 0 -0.03500000014901161
v  0.01961570419371128 0.003901806427165866 -0.03500000014901161
v  0.01847758889198303 0.007653668988496065 0.03500000014901161
v  0.01847758889198303 0.007653668988496065 -0.03500000014901161
v  0.01662939228117466 0.01111140474677086 0.03500000014901161
v  0.01662939228117466 0.01111140474677086 -0.03500000014901161
v  0.01414213515818119 0.01414213515818119 0.03500000014901161
v  0.01414213515818119 0.01414213515818119 -0.03500000014901161
v  0.01111140381544828 0.01662939228117466 0.03500000014901161
v  0.01111140381544828 0.01662939228117466 -0.03500000014901161
v  0.007653668522834778 0.01847758889198303 0.03500000014901161
v  0.007653668522834778 0.01847758889198303 -0.03500000014901161
v  0.003901804564520717 0.01961570605635643 0.03500000014901161
v  0.003901804564520717 0.01961570605635643 -0.03500000014901161
v  -8.742277457507441e-10 0.01999999955296516 0.03500000014901161
v  -8.742277457507441e-10 0.01999999955296516 -0.03500000014901161
v  -0.003901806427165866 0.01961570419371128 0.03500000014901161
v  -0.003901806427165866 0.01961570419371128 -0.03500000014901161
v  -0.00765366991981864 0.01847758889198303 0.03500000014901161
v  -0.00765366991981864 0.01847758889198303 -0.03500000014901161
v  -0.01111140660941601 0.01662939041852951 0.03500000014901161
v  -0.01111140660941601 0.01662939041852951 -0.03500000014901161
v  -0.01414213515818119 0.01414213515818119 0.03500000014901161
v  -0.01414213515818119 0.01414213515818119 -0.03500000014901161
v  -0.01662939228117466 0.01111140381544828 0.03500000014901161
v  -0.01662939228117466 0.01111140381544828 -0.03500000014901161
v  -0.01847759261727333 0.007653665263205767 0.03500000014901161
v  -0.01847759261727333 0.007653665263205767 -0.03500000014901161
v  -0.01961570605635643 0.003901806194335222 0.03500000014901161
v  -0.01961570605635643 0.003901806194335222 -0.03500000014901161
v  -0.01999999955296516 -1.748455491501488e-09 0.03500000014901161
v  -0.01999999955296516 -1.748455491501488e-09 -0.03500000014901161
v  -0.01961570419371128 -0.003901809686794877 0.03500000014901161
v  -0.01961570419371128 -0.003901809686794877 -0.03500000014901161
v  -0.01847758889198303 -0.007653668522834778 0.03500000014901161
v  -0.01847758889198303 -0.007653668522834778 -0.03500000014901161
v  -0.01662939041852951 -0.01111140567809343 0.03500000014901161
v  -0.01662939041852951 -0.01111140567809343 -0.03500000014901161
v  -0.01414213236421347 -0.01414213702082634 0.03500000014901161
v  -0.01414213236421347 -0.01414213702082634 -0.03500000014901161
v  -0.01111140009015799 -0.01662939600646496 0.03500000014901161
v  -0.01111140009015799 -0.01662939600646496 -0.03500000014901161
v  -0.007653662469238043 -0.01847759261727333 0.03500000014901161
v  -0.007653662469238043 -0.01847759261727333 -0.03500000014901161
v  -0.003901807591319084 -0.01961570419371128 0.03500000014901161
v  -0.003901807591319084 -0.01961570419371128 -0.03500000014901161
v  2.38497610549615e-10 -0.01999999955296516 0.03500000014901161
v  2.38497610549615e-10 -0.01999999955296516 -0.03500000014901161
v  0.003901808289811015 -0.01961570419371128 0.03500000014901161
v  0.003901808289811015 -0.01961570419371128 -0.03500000014901161
v  0.007653671782463789 -0.01847758889198303 0.03500000014901161
v  0.007653671782463789 -0.01847758889198303 -0.03500000014901161
v  0.01111140847206116 -0.01662938855588436 0.03500000014901161
v  0.01111140847206116 -0.01662938855588436 -0.03500000014901161
v  0.01414213981479406 -0.01414213050156832 0.03500000014901161
v  0.01414213981479406 -0.01414213050156832 -0.03500000014901161
v  0.01662939228117466 -0.01111140567809343 0.03500000014901161
v  0.01662939228117466 -0.01111140567809343 -0.03500000014901161
v  0.01847759075462818 -0.007653668522834778 0.03500000014901161
v  0.01847759075462818 -0.007653668522834778 -0.03500000014901161
v  0.01961570605635643 -0.003901804564520717 0.03500000014901161
v  0.01961570605635643 -0.003901804564520717 -0.03500000014901161

# 0 UV coordinates

# 62 vertex normals
vn 0 0 1
vn 0 0 -1
vn 1 0 0
vn 0.991227924823761 0.1321637183427811 0
vn 0.9805806875228882 0.1961161345243454 0
vn 0.9417418837547302 0.3363364040851593 0
vn 0.9191450476646423 0.3939192891120911 0
vn 0.8516583442687988 0.5240974426269531 0
vn 0.800000011920929 0.6000000238418579 0
vn 0.7399400472640991 0.6726728081703186 0
vn 0.6726728081703186 0.7399400472640991 0
vn 0.6000000238418579 0.800000011920929 0
vn 0.5240974426269531 0.8516583442687988 0
vn 0.3939192891120911 0.9191450476646423 0
vn 0.3363364040851593 0.9417418837547302 0
vn 0.1961161345243454 0.9805806875228882 0
vn 0.1321637183427811 0.991227924823761 0
vn 0 1 0
vn -0.1321637183427811 0.991227924823761 0
vn -0.1961161345243454 0.9805806875228882 0
vn -0.3363364040851593 0.9417418837547302 0
vn -0.3939192891120911 0.9191450476646423 0
vn -0.5240974426269531 0.8516583442687988 0
vn -0.6000000238418579 0.800000011920929 0
vn -0.6726728081703186 0.7399400472640991 0
vn -0.7399400472640991 0.6726728081703186 0
vn -0.800000011920929 0.6000000238418579 0
vn -0.8516583442687988 0.5240974426269531 0
vn -0.9191450476646423 0.3939192891120911 0
vn -0.9417418837547302 0.3363364040851593 0
vn -0.9805806875228882 0.1961161345243454 0
vn -0.991227924823761 0.1321637183427811 0
vn -1 0 0
vn -0.991227924823761 -0.1321637183427811 0
vn -0.9805806875228882 -0.1961161345243454 0
vn -0.9417418837547302 -0.3363364040851593 0
vn -0.9191450476646423 -0.3939192891120911 0
vn -0.8516583442687988 -0.5240974426269531 0
vn -0.800000011920929 -0.6000000238418579 0
vn -0.7399400472640991 -0.6726728081703186 0
vn -0.6726728081703186 -0.7399400472640991 0
vn -0.6000000238418579 -0.800000011920929 0
vn -0.5240974426269531 -0.8516583442687988 0
vn -0.3939192891120911 -0.9191450476646423 0
vn -0.3363364040851593 -0.9417418837547302 0
vn -0.1961161345243454 -0.9805806875228882 0
vn -0.1321637183427811 -0.991227924823761 0
vn 0 -1 0
vn 0.1321637183427811 -0.991227924823761 0
vn 0.1961161345243454 -0.9805806875228882 0
vn 0.3363364040851593 -0.9417418837547302 0
vn 0.3939192891120911 -0.9191450476646423 0
vn 0.5240974426269531 -0.8516583442687988 0
vn 0.6000000238418579 -0.800000011920929 0
vn 0.6726728081703186 -0.7399400472640991 0
vn 0.7399400472640991 -0.6726728081703186 0
vn 0.800000011920929 -0.6000000238418579 0
vn 0.8516583442687988 -0.5240974426269531 0
vn 0.9191450476646423 -0.3939192891120911 0
vn 0.9417418837547302 -0.3363364040851593 0
vn 0.9805806875228882 -0.1961161345243454 0
vn 0.991227924823761 -0.1321637183427811 0

# Mesh '' with 128 faces
usemtl $Material_0
f  1//1 2//1 3//1
f  4//2 5//2 6//2
f  2//3 4//3 3//4
f  4//3 6//5 3//4
f  1//1 3//1 7//1
f  6//2 5//2 8//2
f  3//4 6//5 7//6
f  6//5 8//7 7//6
f  1//1 7//1 9//1
f  8//2 5//2 10//2
f  7//6 8//7 9//8
f  8//7 10//9 9//8
f  1//1 9//1 11//1
f  10//2 5//2 12//2
f  9//8 10//9 11//10
f  10//9 12//11 11//10
f  1//1 11//1 13//1
f  12//2 5//2 14//2
f  11//10 12//11 13//12
f  12//11 14//13 13//12
f  1//1 13//1 15//1
f  14//2 5//2 16//2
f  13//12 14//13 15//14
f  14//13 16//15 15//14
f  1//1 15//1 17//1
f  16//2 5//2 18//2
f  15//14 16//15 17//16
f  16//15 18//17 17//16
f  1//1 17//1 19//1
f  18//2 5//2 20//2
f  17//16 18//17 19//18
f  18//17 20//18 19//18
f  1//1 19//1 21//1
f  20//2 5//2 22//2
f  19//18 20//18 21//19
f  20//18 22//20 21//19
f  1//1 21//1 23//1
f  22//2 5//2 24//2
f  21//19 22//20 23//21
f  22//20 24//22 23//21
f  1//1 23//1 25//1
f  24//2 5//2 26//2
f  23//21 24//22 25//23
f  24//22 26//24 25//23
f  1//1 25//1 27//1
f  26//2 5//2 28//2
f  25//23 26//24 27//25
f  26//24 28//26 27//25
f  1//1 27//1 29//1
f  28//2 5//2 30//2
f  27//25 28//26 29//27
f  28//26 30//28 29//27
f  1//1 29//1 31//1
f  30//2 5//2 32//2
f  29//27 30//28 31//29
f  30//28 32//30 31//29
f  1//1 31//1 33//1
f  32//2 5//2 34//2
f  31//29 32//30 33//31
f  32//30 34//32 33//31
f  1//1 33//1 35//1
f  34//2 5//2 36//2
f  33//31 34//32 35//33
f  34//32 36//33 35//33
f  1//1 35//1 37//1
f  36//2 5//2 38//2
f  35//33 36//33 37//34
f  36//33 38//35 37//34
f  1//1 37//1 39//1
f  38//2 5//2 40//2
f  37//34 38//35 39//36
f  38//35 40//37 39//36
f  1//1 39//1 41//1
f  40//2 5//2 42//2
f  39//36 40//37 41//38
f  40//37 42//39 41//38
f  1//1 41//1 43//1
f  42//2 5//2 44//2
f  41//38 42//39 43//40
f  42//39 44//41 43//40
f  1//1 43//1 45//1
f  44//2 5//2 46//2
f  43//40 44//41 45//42
f  44//41 46//43 45//42
f  1//1 45//1 47//1
f  46//2 5//2 48//2
f  45//42 46//43 47//44
f  46//43 48//45 47//44
f  1//1 47//1 49//1
f  48//2 5//2 50//2
f  47//44 48//45 49//46
f  48//45 50//47 49//46
f  1//1 49//1 51//1
f  50//2 5//2 52//2
f  49//46 50//47 51//48
f  50//47 52//48 51//48
f  1//1 51//1 53//1
f  52//2 5//2 54//2
f  51//48 52//48 53//49
f  52//48 54//50 53//49
f  1//1 53//1 55//1
f  54//2 5//2 56//2
f  53//49 54//50 55//51
f  54//50 56//52 55//51
f  1//1 55//1 57//1
f  56//2 5//2 58//2
f  55//51 56//52 57//53
f  56//52 58//54 57//53
f  1//1 57//1 59//1
f  58//2 5//2 60//2
f  57//53 58//54 59//55
f  58//54 60//56 59//55
f  1//1 59//1 61//1
f  60//2 5//2 62//2
f  59//55 60//56 61//57
f  60//56 62//58 61//57
f  1//1 61//1 63//1
f  62//2 5//2 64//2
f  61//57 62//58 63//59
f  62//58 64//60 63//59
f  1//1 63//1 65//1
f  64//2 5//2 66//2
f  63//59 64//60 65//61
f  64//60 66//62 65//61
f  1//1 65//1 2//1
f  66//2 5//2 4//2
f  65//61 66//62 2//3
f  66//62 4//3 2//3

