solid ASCII
  facet normal 9.396926e-01 -2.595571e-16 3.420201e-01
    outer loop
      vertex   -1.572427e+02 -2.572427e+02 1.000000e+01
      vertex   -1.572427e+02 2.572427e+02 1.000000e+01
      vertex   -1.900000e+02 -2.900000e+02 1.000000e+02
    endloop
  endfacet
  facet normal 9.396926e-01 -1.841908e-16 3.420201e-01
    outer loop
      vertex   -1.900000e+02 -2.900000e+02 1.000000e+02
      vertex   -1.572427e+02 2.572427e+02 1.000000e+01
      vertex   -1.900000e+02 2.900000e+02 1.000000e+02
    endloop
  endfacet
  facet normal 3.397000e-16 9.396926e-01 3.420201e-01
    outer loop
      vertex   1.572427e+02 -2.572427e+02 1.000000e+01
      vertex   -1.572427e+02 -2.572427e+02 1.000000e+01
      vertex   1.900000e+02 -2.900000e+02 1.000000e+02
    endloop
  endfacet
  facet normal 1.405667e-16 9.396926e-01 3.420201e-01
    outer loop
      vertex   1.900000e+02 -2.900000e+02 1.000000e+02
      vertex   -1.572427e+02 -2.572427e+02 1.000000e+01
      vertex   -1.900000e+02 -2.900000e+02 1.000000e+02
    endloop
  endfacet
  facet normal -9.396926e-01 2.595571e-16 3.420201e-01
    outer loop
      vertex   1.572427e+02 2.572427e+02 1.000000e+01
      vertex   1.572427e+02 -2.572427e+02 1.000000e+01
      vertex   1.900000e+02 2.900000e+02 1.000000e+02
    endloop
  endfacet
  facet normal -9.396926e-01 1.841908e-16 3.420201e-01
    outer loop
      vertex   1.900000e+02 2.900000e+02 1.000000e+02
      vertex   1.572427e+02 -2.572427e+02 1.000000e+01
      vertex   1.900000e+02 -2.900000e+02 1.000000e+02
    endloop
  endfacet
  facet normal -3.397000e-16 -9.396926e-01 3.420201e-01
    outer loop
      vertex   -1.572427e+02 2.572427e+02 1.000000e+01
      vertex   1.572427e+02 2.572427e+02 1.000000e+01
      vertex   -1.900000e+02 2.900000e+02 1.000000e+02
    endloop
  endfacet
  facet normal -1.405667e-16 -9.396926e-01 3.420201e-01
    outer loop
      vertex   -1.900000e+02 2.900000e+02 1.000000e+02
      vertex   1.572427e+02 2.572427e+02 1.000000e+01
      vertex   1.900000e+02 2.900000e+02 1.000000e+02
    endloop
  endfacet
  facet normal 0.000000e+00 0.000000e+00 1.000000e+00
    outer loop
      vertex   -1.572427e+02 2.572427e+02 1.000000e+01
      vertex   -1.572427e+02 -2.572427e+02 1.000000e+01
      vertex   1.572427e+02 2.572427e+02 1.000000e+01
    endloop
  endfacet
  facet normal 0.000000e+00 0.000000e+00 1.000000e+00
    outer loop
      vertex   1.572427e+02 2.572427e+02 1.000000e+01
      vertex   -1.572427e+02 -2.572427e+02 1.000000e+01
      vertex   1.572427e+02 -2.572427e+02 1.000000e+01
    endloop
  endfacet
  facet normal -1.000000e+00 1.894781e-16 0.000000e+00
    outer loop
      vertex   -2.000000e+02 3.000000e+02 0.000000e+00
      vertex   -2.000000e+02 -3.000000e+02 0.000000e+00
      vertex   -2.000000e+02 3.000000e+02 1.000000e+02
    endloop
  endfacet
  facet normal -1.000000e+00 1.894781e-16 0.000000e+00
    outer loop
      vertex   -2.000000e+02 3.000000e+02 1.000000e+02
      vertex   -2.000000e+02 -3.000000e+02 0.000000e+00
      vertex   -2.000000e+02 -3.000000e+02 1.000000e+02
    endloop
  endfacet
  facet normal 1.421085e-16 1.000000e+00 -0.000000e+00
    outer loop
      vertex   2.000000e+02 3.000000e+02 0.000000e+00
      vertex   -2.000000e+02 3.000000e+02 0.000000e+00
      vertex   2.000000e+02 3.000000e+02 1.000000e+02
    endloop
  endfacet
  facet normal 1.421085e-16 1.000000e+00 0.000000e+00
    outer loop
      vertex   2.000000e+02 3.000000e+02 1.000000e+02
      vertex   -2.000000e+02 3.000000e+02 0.000000e+00
      vertex   -2.000000e+02 3.000000e+02 1.000000e+02
    endloop
  endfacet
  facet normal 1.000000e+00 -1.894781e-16 0.000000e+00
    outer loop
      vertex   2.000000e+02 -3.000000e+02 0.000000e+00
      vertex   2.000000e+02 3.000000e+02 0.000000e+00
      vertex   2.000000e+02 -3.000000e+02 1.000000e+02
    endloop
  endfacet
  facet normal 1.000000e+00 -1.894781e-16 0.000000e+00
    outer loop
      vertex   2.000000e+02 -3.000000e+02 1.000000e+02
      vertex   2.000000e+02 3.000000e+02 0.000000e+00
      vertex   2.000000e+02 3.000000e+02 1.000000e+02
    endloop
  endfacet
  facet normal -1.421085e-16 -1.000000e+00 0.000000e+00
    outer loop
      vertex   -2.000000e+02 -3.000000e+02 0.000000e+00
      vertex   2.000000e+02 -3.000000e+02 0.000000e+00
      vertex   -2.000000e+02 -3.000000e+02 1.000000e+02
    endloop
  endfacet
  facet normal -1.421085e-16 -1.000000e+00 0.000000e+00
    outer loop
      vertex   -2.000000e+02 -3.000000e+02 1.000000e+02
      vertex   2.000000e+02 -3.000000e+02 0.000000e+00
      vertex   2.000000e+02 -3.000000e+02 1.000000e+02
    endloop
  endfacet
  facet normal 0.000000e+00 0.000000e+00 1.000000e+00
    outer loop
      vertex   1.900000e+02 -2.900000e+02 1.000000e+02
      vertex   -1.900000e+02 -2.900000e+02 1.000000e+02
      vertex   -2.000000e+02 -3.000000e+02 1.000000e+02
    endloop
  endfacet
  facet normal 0.000000e+00 0.000000e+00 1.000000e+00
    outer loop
      vertex   -2.000000e+02 -3.000000e+02 1.000000e+02
      vertex   -1.900000e+02 -2.900000e+02 1.000000e+02
      vertex   -1.900000e+02 2.900000e+02 1.000000e+02
    endloop
  endfacet
  facet normal 0.000000e+00 0.000000e+00 1.000000e+00
    outer loop
      vertex   -2.000000e+02 -3.000000e+02 1.000000e+02
      vertex   -1.900000e+02 2.900000e+02 1.000000e+02
      vertex   -2.000000e+02 3.000000e+02 1.000000e+02
    endloop
  endfacet
  facet normal 0.000000e+00 0.000000e+00 1.000000e+00
    outer loop
      vertex   -2.000000e+02 3.000000e+02 1.000000e+02
      vertex   -1.900000e+02 2.900000e+02 1.000000e+02
      vertex   1.900000e+02 2.900000e+02 1.000000e+02
    endloop
  endfacet
  facet normal 0.000000e+00 0.000000e+00 1.000000e+00
    outer loop
      vertex   -2.000000e+02 3.000000e+02 1.000000e+02
      vertex   1.900000e+02 2.900000e+02 1.000000e+02
      vertex   2.000000e+02 3.000000e+02 1.000000e+02
    endloop
  endfacet
  facet normal 0.000000e+00 0.000000e+00 1.000000e+00
    outer loop
      vertex   2.000000e+02 3.000000e+02 1.000000e+02
      vertex   1.900000e+02 2.900000e+02 1.000000e+02
      vertex   1.900000e+02 -2.900000e+02 1.000000e+02
    endloop
  endfacet
  facet normal 0.000000e+00 0.000000e+00 1.000000e+00
    outer loop
      vertex   2.000000e+02 3.000000e+02 1.000000e+02
      vertex   1.900000e+02 -2.900000e+02 1.000000e+02
      vertex   2.000000e+02 -3.000000e+02 1.000000e+02
    endloop
  endfacet
  facet normal 0.000000e+00 0.000000e+00 1.000000e+00
    outer loop
      vertex   2.000000e+02 -3.000000e+02 1.000000e+02
      vertex   1.900000e+02 -2.900000e+02 1.000000e+02
      vertex   -2.000000e+02 -3.000000e+02 1.000000e+02
    endloop
  endfacet
  facet normal 0.000000e+00 0.000000e+00 -1.000000e+00
    outer loop
      vertex   -2.000000e+02 -3.000000e+02 0.000000e+00
      vertex   -2.000000e+02 3.000000e+02 0.000000e+00
      vertex   2.000000e+02 -3.000000e+02 0.000000e+00
    endloop
  endfacet
  facet normal 0.000000e+00 0.000000e+00 -1.000000e+00
    outer loop
      vertex   2.000000e+02 -3.000000e+02 0.000000e+00
      vertex   -2.000000e+02 3.000000e+02 0.000000e+00
      vertex   2.000000e+02 3.000000e+02 0.000000e+00
    endloop
  endfacet
endsolid
